<?xml version="1.0" encoding="utf-8" standalone="no"?>
<!DOCTYPE svg PUBLIC "-//W3C//DTD SVG 1.1//EN"
  "http://www.w3.org/Graphics/SVG/1.1/DTD/svg11.dtd">
<!-- Created with matplotlib (https://matplotlib.org/) -->
<svg height="345.6pt" version="1.1" viewBox="0 0 460.8 345.6" width="460.8pt" xmlns="http://www.w3.org/2000/svg" xmlns:xlink="http://www.w3.org/1999/xlink">
 <defs>
  <style type="text/css">
*{stroke-linecap:butt;stroke-linejoin:round;}
  </style>
 </defs>
 <g id="figure_1">
  <g id="patch_1">
   <path d="M 0 345.6 
L 460.8 345.6 
L 460.8 0 
L 0 0 
z
" style="fill:#ffffff;"/>
  </g>
  <g id="axes_1">
   <g id="patch_2">
    <path d="M 57.6 307.584 
L 414.72 307.584 
L 414.72 41.472 
L 57.6 41.472 
z
" style="fill:#ffffff;"/>
   </g>
   <g id="matplotlib.axis_1">
    <g id="xtick_1">
     <g id="line2d_1">
      <defs>
       <path d="M 0 0 
L 0 3.5 
" id="mc1453cd83f" style="stroke:#000000;stroke-width:0.8;"/>
      </defs>
      <g>
       <use style="stroke:#000000;stroke-width:0.8;" x="73.832727" xlink:href="#mc1453cd83f" y="307.584"/>
      </g>
     </g>
     <g id="text_1">
      <!-- 0 -->
      <defs>
       <path d="M 31.78125 66.40625 
Q 24.171875 66.40625 20.328125 58.90625 
Q 16.5 51.421875 16.5 36.375 
Q 16.5 21.390625 20.328125 13.890625 
Q 24.171875 6.390625 31.78125 6.390625 
Q 39.453125 6.390625 43.28125 13.890625 
Q 47.125 21.390625 47.125 36.375 
Q 47.125 51.421875 43.28125 58.90625 
Q 39.453125 66.40625 31.78125 66.40625 
z
M 31.78125 74.21875 
Q 44.046875 74.21875 50.515625 64.515625 
Q 56.984375 54.828125 56.984375 36.375 
Q 56.984375 17.96875 50.515625 8.265625 
Q 44.046875 -1.421875 31.78125 -1.421875 
Q 19.53125 -1.421875 13.0625 8.265625 
Q 6.59375 17.96875 6.59375 36.375 
Q 6.59375 54.828125 13.0625 64.515625 
Q 19.53125 74.21875 31.78125 74.21875 
z
" id="DejaVuSans-48"/>
      </defs>
      <g transform="translate(70.651477 322.182437)scale(0.1 -0.1)">
       <use xlink:href="#DejaVuSans-48"/>
      </g>
     </g>
    </g>
    <g id="xtick_2">
     <g id="line2d_2">
      <g>
       <use style="stroke:#000000;stroke-width:0.8;" x="138.828632" xlink:href="#mc1453cd83f" y="307.584"/>
      </g>
     </g>
     <g id="text_2">
      <!-- 200 -->
      <defs>
       <path d="M 19.1875 8.296875 
L 53.609375 8.296875 
L 53.609375 0 
L 7.328125 0 
L 7.328125 8.296875 
Q 12.9375 14.109375 22.625 23.890625 
Q 32.328125 33.6875 34.8125 36.53125 
Q 39.546875 41.84375 41.421875 45.53125 
Q 43.3125 49.21875 43.3125 52.78125 
Q 43.3125 58.59375 39.234375 62.25 
Q 35.15625 65.921875 28.609375 65.921875 
Q 23.96875 65.921875 18.8125 64.3125 
Q 13.671875 62.703125 7.8125 59.421875 
L 7.8125 69.390625 
Q 13.765625 71.78125 18.9375 73 
Q 24.125 74.21875 28.421875 74.21875 
Q 39.75 74.21875 46.484375 68.546875 
Q 53.21875 62.890625 53.21875 53.421875 
Q 53.21875 48.921875 51.53125 44.890625 
Q 49.859375 40.875 45.40625 35.40625 
Q 44.1875 33.984375 37.640625 27.21875 
Q 31.109375 20.453125 19.1875 8.296875 
z
" id="DejaVuSans-50"/>
      </defs>
      <g transform="translate(129.284882 322.182437)scale(0.1 -0.1)">
       <use xlink:href="#DejaVuSans-50"/>
       <use x="63.623047" xlink:href="#DejaVuSans-48"/>
       <use x="127.246094" xlink:href="#DejaVuSans-48"/>
      </g>
     </g>
    </g>
    <g id="xtick_3">
     <g id="line2d_3">
      <g>
       <use style="stroke:#000000;stroke-width:0.8;" x="203.824537" xlink:href="#mc1453cd83f" y="307.584"/>
      </g>
     </g>
     <g id="text_3">
      <!-- 400 -->
      <defs>
       <path d="M 37.796875 64.3125 
L 12.890625 25.390625 
L 37.796875 25.390625 
z
M 35.203125 72.90625 
L 47.609375 72.90625 
L 47.609375 25.390625 
L 58.015625 25.390625 
L 58.015625 17.1875 
L 47.609375 17.1875 
L 47.609375 0 
L 37.796875 0 
L 37.796875 17.1875 
L 4.890625 17.1875 
L 4.890625 26.703125 
z
" id="DejaVuSans-52"/>
      </defs>
      <g transform="translate(194.280787 322.182437)scale(0.1 -0.1)">
       <use xlink:href="#DejaVuSans-52"/>
       <use x="63.623047" xlink:href="#DejaVuSans-48"/>
       <use x="127.246094" xlink:href="#DejaVuSans-48"/>
      </g>
     </g>
    </g>
    <g id="xtick_4">
     <g id="line2d_4">
      <g>
       <use style="stroke:#000000;stroke-width:0.8;" x="268.820442" xlink:href="#mc1453cd83f" y="307.584"/>
      </g>
     </g>
     <g id="text_4">
      <!-- 600 -->
      <defs>
       <path d="M 33.015625 40.375 
Q 26.375 40.375 22.484375 35.828125 
Q 18.609375 31.296875 18.609375 23.390625 
Q 18.609375 15.53125 22.484375 10.953125 
Q 26.375 6.390625 33.015625 6.390625 
Q 39.65625 6.390625 43.53125 10.953125 
Q 47.40625 15.53125 47.40625 23.390625 
Q 47.40625 31.296875 43.53125 35.828125 
Q 39.65625 40.375 33.015625 40.375 
z
M 52.59375 71.296875 
L 52.59375 62.3125 
Q 48.875 64.0625 45.09375 64.984375 
Q 41.3125 65.921875 37.59375 65.921875 
Q 27.828125 65.921875 22.671875 59.328125 
Q 17.53125 52.734375 16.796875 39.40625 
Q 19.671875 43.65625 24.015625 45.921875 
Q 28.375 48.1875 33.59375 48.1875 
Q 44.578125 48.1875 50.953125 41.515625 
Q 57.328125 34.859375 57.328125 23.390625 
Q 57.328125 12.15625 50.6875 5.359375 
Q 44.046875 -1.421875 33.015625 -1.421875 
Q 20.359375 -1.421875 13.671875 8.265625 
Q 6.984375 17.96875 6.984375 36.375 
Q 6.984375 53.65625 15.1875 63.9375 
Q 23.390625 74.21875 37.203125 74.21875 
Q 40.921875 74.21875 44.703125 73.484375 
Q 48.484375 72.75 52.59375 71.296875 
z
" id="DejaVuSans-54"/>
      </defs>
      <g transform="translate(259.276692 322.182437)scale(0.1 -0.1)">
       <use xlink:href="#DejaVuSans-54"/>
       <use x="63.623047" xlink:href="#DejaVuSans-48"/>
       <use x="127.246094" xlink:href="#DejaVuSans-48"/>
      </g>
     </g>
    </g>
    <g id="xtick_5">
     <g id="line2d_5">
      <g>
       <use style="stroke:#000000;stroke-width:0.8;" x="333.816347" xlink:href="#mc1453cd83f" y="307.584"/>
      </g>
     </g>
     <g id="text_5">
      <!-- 800 -->
      <defs>
       <path d="M 31.78125 34.625 
Q 24.75 34.625 20.71875 30.859375 
Q 16.703125 27.09375 16.703125 20.515625 
Q 16.703125 13.921875 20.71875 10.15625 
Q 24.75 6.390625 31.78125 6.390625 
Q 38.8125 6.390625 42.859375 10.171875 
Q 46.921875 13.96875 46.921875 20.515625 
Q 46.921875 27.09375 42.890625 30.859375 
Q 38.875 34.625 31.78125 34.625 
z
M 21.921875 38.8125 
Q 15.578125 40.375 12.03125 44.71875 
Q 8.5 49.078125 8.5 55.328125 
Q 8.5 64.0625 14.71875 69.140625 
Q 20.953125 74.21875 31.78125 74.21875 
Q 42.671875 74.21875 48.875 69.140625 
Q 55.078125 64.0625 55.078125 55.328125 
Q 55.078125 49.078125 51.53125 44.71875 
Q 48 40.375 41.703125 38.8125 
Q 48.828125 37.15625 52.796875 32.3125 
Q 56.78125 27.484375 56.78125 20.515625 
Q 56.78125 9.90625 50.3125 4.234375 
Q 43.84375 -1.421875 31.78125 -1.421875 
Q 19.734375 -1.421875 13.25 4.234375 
Q 6.78125 9.90625 6.78125 20.515625 
Q 6.78125 27.484375 10.78125 32.3125 
Q 14.796875 37.15625 21.921875 38.8125 
z
M 18.3125 54.390625 
Q 18.3125 48.734375 21.84375 45.5625 
Q 25.390625 42.390625 31.78125 42.390625 
Q 38.140625 42.390625 41.71875 45.5625 
Q 45.3125 48.734375 45.3125 54.390625 
Q 45.3125 60.0625 41.71875 63.234375 
Q 38.140625 66.40625 31.78125 66.40625 
Q 25.390625 66.40625 21.84375 63.234375 
Q 18.3125 60.0625 18.3125 54.390625 
z
" id="DejaVuSans-56"/>
      </defs>
      <g transform="translate(324.272597 322.182437)scale(0.1 -0.1)">
       <use xlink:href="#DejaVuSans-56"/>
       <use x="63.623047" xlink:href="#DejaVuSans-48"/>
       <use x="127.246094" xlink:href="#DejaVuSans-48"/>
      </g>
     </g>
    </g>
    <g id="xtick_6">
     <g id="line2d_6">
      <g>
       <use style="stroke:#000000;stroke-width:0.8;" x="398.812252" xlink:href="#mc1453cd83f" y="307.584"/>
      </g>
     </g>
     <g id="text_6">
      <!-- 1000 -->
      <defs>
       <path d="M 12.40625 8.296875 
L 28.515625 8.296875 
L 28.515625 63.921875 
L 10.984375 60.40625 
L 10.984375 69.390625 
L 28.421875 72.90625 
L 38.28125 72.90625 
L 38.28125 8.296875 
L 54.390625 8.296875 
L 54.390625 0 
L 12.40625 0 
z
" id="DejaVuSans-49"/>
      </defs>
      <g transform="translate(386.087252 322.182437)scale(0.1 -0.1)">
       <use xlink:href="#DejaVuSans-49"/>
       <use x="63.623047" xlink:href="#DejaVuSans-48"/>
       <use x="127.246094" xlink:href="#DejaVuSans-48"/>
       <use x="190.869141" xlink:href="#DejaVuSans-48"/>
      </g>
     </g>
    </g>
    <g id="text_7">
     <!-- Iteration -->
     <defs>
      <path d="M 9.8125 72.90625 
L 19.671875 72.90625 
L 19.671875 0 
L 9.8125 0 
z
" id="DejaVuSans-73"/>
      <path d="M 18.3125 70.21875 
L 18.3125 54.6875 
L 36.8125 54.6875 
L 36.8125 47.703125 
L 18.3125 47.703125 
L 18.3125 18.015625 
Q 18.3125 11.328125 20.140625 9.421875 
Q 21.96875 7.515625 27.59375 7.515625 
L 36.8125 7.515625 
L 36.8125 0 
L 27.59375 0 
Q 17.1875 0 13.234375 3.875 
Q 9.28125 7.765625 9.28125 18.015625 
L 9.28125 47.703125 
L 2.6875 47.703125 
L 2.6875 54.6875 
L 9.28125 54.6875 
L 9.28125 70.21875 
z
" id="DejaVuSans-116"/>
      <path d="M 56.203125 29.59375 
L 56.203125 25.203125 
L 14.890625 25.203125 
Q 15.484375 15.921875 20.484375 11.0625 
Q 25.484375 6.203125 34.421875 6.203125 
Q 39.59375 6.203125 44.453125 7.46875 
Q 49.3125 8.734375 54.109375 11.28125 
L 54.109375 2.78125 
Q 49.265625 0.734375 44.1875 -0.34375 
Q 39.109375 -1.421875 33.890625 -1.421875 
Q 20.796875 -1.421875 13.15625 6.1875 
Q 5.515625 13.8125 5.515625 26.8125 
Q 5.515625 40.234375 12.765625 48.109375 
Q 20.015625 56 32.328125 56 
Q 43.359375 56 49.78125 48.890625 
Q 56.203125 41.796875 56.203125 29.59375 
z
M 47.21875 32.234375 
Q 47.125 39.59375 43.09375 43.984375 
Q 39.0625 48.390625 32.421875 48.390625 
Q 24.90625 48.390625 20.390625 44.140625 
Q 15.875 39.890625 15.1875 32.171875 
z
" id="DejaVuSans-101"/>
      <path d="M 41.109375 46.296875 
Q 39.59375 47.171875 37.8125 47.578125 
Q 36.03125 48 33.890625 48 
Q 26.265625 48 22.1875 43.046875 
Q 18.109375 38.09375 18.109375 28.8125 
L 18.109375 0 
L 9.078125 0 
L 9.078125 54.6875 
L 18.109375 54.6875 
L 18.109375 46.1875 
Q 20.953125 51.171875 25.484375 53.578125 
Q 30.03125 56 36.53125 56 
Q 37.453125 56 38.578125 55.875 
Q 39.703125 55.765625 41.0625 55.515625 
z
" id="DejaVuSans-114"/>
      <path d="M 34.28125 27.484375 
Q 23.390625 27.484375 19.1875 25 
Q 14.984375 22.515625 14.984375 16.5 
Q 14.984375 11.71875 18.140625 8.90625 
Q 21.296875 6.109375 26.703125 6.109375 
Q 34.1875 6.109375 38.703125 11.40625 
Q 43.21875 16.703125 43.21875 25.484375 
L 43.21875 27.484375 
z
M 52.203125 31.203125 
L 52.203125 0 
L 43.21875 0 
L 43.21875 8.296875 
Q 40.140625 3.328125 35.546875 0.953125 
Q 30.953125 -1.421875 24.3125 -1.421875 
Q 15.921875 -1.421875 10.953125 3.296875 
Q 6 8.015625 6 15.921875 
Q 6 25.140625 12.171875 29.828125 
Q 18.359375 34.515625 30.609375 34.515625 
L 43.21875 34.515625 
L 43.21875 35.40625 
Q 43.21875 41.609375 39.140625 45 
Q 35.0625 48.390625 27.6875 48.390625 
Q 23 48.390625 18.546875 47.265625 
Q 14.109375 46.140625 10.015625 43.890625 
L 10.015625 52.203125 
Q 14.9375 54.109375 19.578125 55.046875 
Q 24.21875 56 28.609375 56 
Q 40.484375 56 46.34375 49.84375 
Q 52.203125 43.703125 52.203125 31.203125 
z
" id="DejaVuSans-97"/>
      <path d="M 9.421875 54.6875 
L 18.40625 54.6875 
L 18.40625 0 
L 9.421875 0 
z
M 9.421875 75.984375 
L 18.40625 75.984375 
L 18.40625 64.59375 
L 9.421875 64.59375 
z
" id="DejaVuSans-105"/>
      <path d="M 30.609375 48.390625 
Q 23.390625 48.390625 19.1875 42.75 
Q 14.984375 37.109375 14.984375 27.296875 
Q 14.984375 17.484375 19.15625 11.84375 
Q 23.34375 6.203125 30.609375 6.203125 
Q 37.796875 6.203125 41.984375 11.859375 
Q 46.1875 17.53125 46.1875 27.296875 
Q 46.1875 37.015625 41.984375 42.703125 
Q 37.796875 48.390625 30.609375 48.390625 
z
M 30.609375 56 
Q 42.328125 56 49.015625 48.375 
Q 55.71875 40.765625 55.71875 27.296875 
Q 55.71875 13.875 49.015625 6.21875 
Q 42.328125 -1.421875 30.609375 -1.421875 
Q 18.84375 -1.421875 12.171875 6.21875 
Q 5.515625 13.875 5.515625 27.296875 
Q 5.515625 40.765625 12.171875 48.375 
Q 18.84375 56 30.609375 56 
z
" id="DejaVuSans-111"/>
      <path d="M 54.890625 33.015625 
L 54.890625 0 
L 45.90625 0 
L 45.90625 32.71875 
Q 45.90625 40.484375 42.875 44.328125 
Q 39.84375 48.1875 33.796875 48.1875 
Q 26.515625 48.1875 22.3125 43.546875 
Q 18.109375 38.921875 18.109375 30.90625 
L 18.109375 0 
L 9.078125 0 
L 9.078125 54.6875 
L 18.109375 54.6875 
L 18.109375 46.1875 
Q 21.34375 51.125 25.703125 53.5625 
Q 30.078125 56 35.796875 56 
Q 45.21875 56 50.046875 50.171875 
Q 54.890625 44.34375 54.890625 33.015625 
z
" id="DejaVuSans-110"/>
     </defs>
     <g transform="translate(214.951406 335.860562)scale(0.1 -0.1)">
      <use xlink:href="#DejaVuSans-73"/>
      <use x="29.492188" xlink:href="#DejaVuSans-116"/>
      <use x="68.701172" xlink:href="#DejaVuSans-101"/>
      <use x="130.224609" xlink:href="#DejaVuSans-114"/>
      <use x="171.337891" xlink:href="#DejaVuSans-97"/>
      <use x="232.617188" xlink:href="#DejaVuSans-116"/>
      <use x="271.826172" xlink:href="#DejaVuSans-105"/>
      <use x="299.609375" xlink:href="#DejaVuSans-111"/>
      <use x="360.791016" xlink:href="#DejaVuSans-110"/>
     </g>
    </g>
   </g>
   <g id="matplotlib.axis_2">
    <g id="ytick_1">
     <g id="line2d_7">
      <defs>
       <path d="M 0 0 
L -3.5 0 
" id="m21437eef0d" style="stroke:#000000;stroke-width:0.8;"/>
      </defs>
      <g>
       <use style="stroke:#000000;stroke-width:0.8;" x="57.6" xlink:href="#m21437eef0d" y="276.311473"/>
      </g>
     </g>
     <g id="text_8">
      <!-- $\mathdefault{10^{-1}}$ -->
      <defs>
       <path d="M 10.59375 35.5 
L 73.1875 35.5 
L 73.1875 27.203125 
L 10.59375 27.203125 
z
" id="DejaVuSans-8722"/>
      </defs>
      <g transform="translate(27.1 280.110691)scale(0.1 -0.1)">
       <use transform="translate(0 0.684375)" xlink:href="#DejaVuSans-49"/>
       <use transform="translate(63.623047 0.684375)" xlink:href="#DejaVuSans-48"/>
       <use transform="translate(128.203125 38.965625)scale(0.7)" xlink:href="#DejaVuSans-8722"/>
       <use transform="translate(186.855469 38.965625)scale(0.7)" xlink:href="#DejaVuSans-49"/>
      </g>
     </g>
    </g>
    <g id="ytick_2">
     <g id="line2d_8">
      <g>
       <use style="stroke:#000000;stroke-width:0.8;" x="57.6" xlink:href="#m21437eef0d" y="210.880042"/>
      </g>
     </g>
     <g id="text_9">
      <!-- $\mathdefault{10^{0}}$ -->
      <g transform="translate(33 214.67926)scale(0.1 -0.1)">
       <use transform="translate(0 0.765625)" xlink:href="#DejaVuSans-49"/>
       <use transform="translate(63.623047 0.765625)" xlink:href="#DejaVuSans-48"/>
       <use transform="translate(128.203125 39.046875)scale(0.7)" xlink:href="#DejaVuSans-48"/>
      </g>
     </g>
    </g>
    <g id="ytick_3">
     <g id="line2d_9">
      <g>
       <use style="stroke:#000000;stroke-width:0.8;" x="57.6" xlink:href="#m21437eef0d" y="145.448611"/>
      </g>
     </g>
     <g id="text_10">
      <!-- $\mathdefault{10^{1}}$ -->
      <g transform="translate(33 149.24783)scale(0.1 -0.1)">
       <use transform="translate(0 0.684375)" xlink:href="#DejaVuSans-49"/>
       <use transform="translate(63.623047 0.684375)" xlink:href="#DejaVuSans-48"/>
       <use transform="translate(128.203125 38.965625)scale(0.7)" xlink:href="#DejaVuSans-49"/>
      </g>
     </g>
    </g>
    <g id="ytick_4">
     <g id="line2d_10">
      <g>
       <use style="stroke:#000000;stroke-width:0.8;" x="57.6" xlink:href="#m21437eef0d" y="80.01718"/>
      </g>
     </g>
     <g id="text_11">
      <!-- $\mathdefault{10^{2}}$ -->
      <g transform="translate(33 83.816399)scale(0.1 -0.1)">
       <use transform="translate(0 0.765625)" xlink:href="#DejaVuSans-49"/>
       <use transform="translate(63.623047 0.765625)" xlink:href="#DejaVuSans-48"/>
       <use transform="translate(128.203125 39.046875)scale(0.7)" xlink:href="#DejaVuSans-50"/>
      </g>
     </g>
    </g>
    <g id="ytick_5">
     <g id="line2d_11">
      <defs>
       <path d="M 0 0 
L -2 0 
" id="m473996d1c5" style="stroke:#000000;stroke-width:0.6;"/>
      </defs>
      <g>
       <use style="stroke:#000000;stroke-width:0.6;" x="57.6" xlink:href="#m473996d1c5" y="302.349257"/>
      </g>
     </g>
    </g>
    <g id="ytick_6">
     <g id="line2d_12">
      <g>
       <use style="stroke:#000000;stroke-width:0.6;" x="57.6" xlink:href="#m473996d1c5" y="296.008296"/>
      </g>
     </g>
    </g>
    <g id="ytick_7">
     <g id="line2d_13">
      <g>
       <use style="stroke:#000000;stroke-width:0.6;" x="57.6" xlink:href="#m473996d1c5" y="290.827354"/>
      </g>
     </g>
    </g>
    <g id="ytick_8">
     <g id="line2d_14">
      <g>
       <use style="stroke:#000000;stroke-width:0.6;" x="57.6" xlink:href="#m473996d1c5" y="286.446929"/>
      </g>
     </g>
    </g>
    <g id="ytick_9">
     <g id="line2d_15">
      <g>
       <use style="stroke:#000000;stroke-width:0.6;" x="57.6" xlink:href="#m473996d1c5" y="282.652433"/>
      </g>
     </g>
    </g>
    <g id="ytick_10">
     <g id="line2d_16">
      <g>
       <use style="stroke:#000000;stroke-width:0.6;" x="57.6" xlink:href="#m473996d1c5" y="279.305451"/>
      </g>
     </g>
    </g>
    <g id="ytick_11">
     <g id="line2d_17">
      <g>
       <use style="stroke:#000000;stroke-width:0.6;" x="57.6" xlink:href="#m473996d1c5" y="256.614649"/>
      </g>
     </g>
    </g>
    <g id="ytick_12">
     <g id="line2d_18">
      <g>
       <use style="stroke:#000000;stroke-width:0.6;" x="57.6" xlink:href="#m473996d1c5" y="245.092746"/>
      </g>
     </g>
    </g>
    <g id="ytick_13">
     <g id="line2d_19">
      <g>
       <use style="stroke:#000000;stroke-width:0.6;" x="57.6" xlink:href="#m473996d1c5" y="236.917826"/>
      </g>
     </g>
    </g>
    <g id="ytick_14">
     <g id="line2d_20">
      <g>
       <use style="stroke:#000000;stroke-width:0.6;" x="57.6" xlink:href="#m473996d1c5" y="230.576865"/>
      </g>
     </g>
    </g>
    <g id="ytick_15">
     <g id="line2d_21">
      <g>
       <use style="stroke:#000000;stroke-width:0.6;" x="57.6" xlink:href="#m473996d1c5" y="225.395923"/>
      </g>
     </g>
    </g>
    <g id="ytick_16">
     <g id="line2d_22">
      <g>
       <use style="stroke:#000000;stroke-width:0.6;" x="57.6" xlink:href="#m473996d1c5" y="221.015499"/>
      </g>
     </g>
    </g>
    <g id="ytick_17">
     <g id="line2d_23">
      <g>
       <use style="stroke:#000000;stroke-width:0.6;" x="57.6" xlink:href="#m473996d1c5" y="217.221002"/>
      </g>
     </g>
    </g>
    <g id="ytick_18">
     <g id="line2d_24">
      <g>
       <use style="stroke:#000000;stroke-width:0.6;" x="57.6" xlink:href="#m473996d1c5" y="213.87402"/>
      </g>
     </g>
    </g>
    <g id="ytick_19">
     <g id="line2d_25">
      <g>
       <use style="stroke:#000000;stroke-width:0.6;" x="57.6" xlink:href="#m473996d1c5" y="191.183218"/>
      </g>
     </g>
    </g>
    <g id="ytick_20">
     <g id="line2d_26">
      <g>
       <use style="stroke:#000000;stroke-width:0.6;" x="57.6" xlink:href="#m473996d1c5" y="179.661315"/>
      </g>
     </g>
    </g>
    <g id="ytick_21">
     <g id="line2d_27">
      <g>
       <use style="stroke:#000000;stroke-width:0.6;" x="57.6" xlink:href="#m473996d1c5" y="171.486395"/>
      </g>
     </g>
    </g>
    <g id="ytick_22">
     <g id="line2d_28">
      <g>
       <use style="stroke:#000000;stroke-width:0.6;" x="57.6" xlink:href="#m473996d1c5" y="165.145434"/>
      </g>
     </g>
    </g>
    <g id="ytick_23">
     <g id="line2d_29">
      <g>
       <use style="stroke:#000000;stroke-width:0.6;" x="57.6" xlink:href="#m473996d1c5" y="159.964492"/>
      </g>
     </g>
    </g>
    <g id="ytick_24">
     <g id="line2d_30">
      <g>
       <use style="stroke:#000000;stroke-width:0.6;" x="57.6" xlink:href="#m473996d1c5" y="155.584068"/>
      </g>
     </g>
    </g>
    <g id="ytick_25">
     <g id="line2d_31">
      <g>
       <use style="stroke:#000000;stroke-width:0.6;" x="57.6" xlink:href="#m473996d1c5" y="151.789572"/>
      </g>
     </g>
    </g>
    <g id="ytick_26">
     <g id="line2d_32">
      <g>
       <use style="stroke:#000000;stroke-width:0.6;" x="57.6" xlink:href="#m473996d1c5" y="148.442589"/>
      </g>
     </g>
    </g>
    <g id="ytick_27">
     <g id="line2d_33">
      <g>
       <use style="stroke:#000000;stroke-width:0.6;" x="57.6" xlink:href="#m473996d1c5" y="125.751787"/>
      </g>
     </g>
    </g>
    <g id="ytick_28">
     <g id="line2d_34">
      <g>
       <use style="stroke:#000000;stroke-width:0.6;" x="57.6" xlink:href="#m473996d1c5" y="114.229884"/>
      </g>
     </g>
    </g>
    <g id="ytick_29">
     <g id="line2d_35">
      <g>
       <use style="stroke:#000000;stroke-width:0.6;" x="57.6" xlink:href="#m473996d1c5" y="106.054964"/>
      </g>
     </g>
    </g>
    <g id="ytick_30">
     <g id="line2d_36">
      <g>
       <use style="stroke:#000000;stroke-width:0.6;" x="57.6" xlink:href="#m473996d1c5" y="99.714003"/>
      </g>
     </g>
    </g>
    <g id="ytick_31">
     <g id="line2d_37">
      <g>
       <use style="stroke:#000000;stroke-width:0.6;" x="57.6" xlink:href="#m473996d1c5" y="94.533061"/>
      </g>
     </g>
    </g>
    <g id="ytick_32">
     <g id="line2d_38">
      <g>
       <use style="stroke:#000000;stroke-width:0.6;" x="57.6" xlink:href="#m473996d1c5" y="90.152637"/>
      </g>
     </g>
    </g>
    <g id="ytick_33">
     <g id="line2d_39">
      <g>
       <use style="stroke:#000000;stroke-width:0.6;" x="57.6" xlink:href="#m473996d1c5" y="86.358141"/>
      </g>
     </g>
    </g>
    <g id="ytick_34">
     <g id="line2d_40">
      <g>
       <use style="stroke:#000000;stroke-width:0.6;" x="57.6" xlink:href="#m473996d1c5" y="83.011158"/>
      </g>
     </g>
    </g>
    <g id="ytick_35">
     <g id="line2d_41">
      <g>
       <use style="stroke:#000000;stroke-width:0.6;" x="57.6" xlink:href="#m473996d1c5" y="60.320357"/>
      </g>
     </g>
    </g>
    <g id="ytick_36">
     <g id="line2d_42">
      <g>
       <use style="stroke:#000000;stroke-width:0.6;" x="57.6" xlink:href="#m473996d1c5" y="48.798454"/>
      </g>
     </g>
    </g>
    <g id="text_12">
     <!-- Error (SSR) -->
     <defs>
      <path d="M 9.8125 72.90625 
L 55.90625 72.90625 
L 55.90625 64.59375 
L 19.671875 64.59375 
L 19.671875 43.015625 
L 54.390625 43.015625 
L 54.390625 34.71875 
L 19.671875 34.71875 
L 19.671875 8.296875 
L 56.78125 8.296875 
L 56.78125 0 
L 9.8125 0 
z
" id="DejaVuSans-69"/>
      <path id="DejaVuSans-32"/>
      <path d="M 31 75.875 
Q 24.46875 64.65625 21.28125 53.65625 
Q 18.109375 42.671875 18.109375 31.390625 
Q 18.109375 20.125 21.3125 9.0625 
Q 24.515625 -2 31 -13.1875 
L 23.1875 -13.1875 
Q 15.875 -1.703125 12.234375 9.375 
Q 8.59375 20.453125 8.59375 31.390625 
Q 8.59375 42.28125 12.203125 53.3125 
Q 15.828125 64.359375 23.1875 75.875 
z
" id="DejaVuSans-40"/>
      <path d="M 53.515625 70.515625 
L 53.515625 60.890625 
Q 47.90625 63.578125 42.921875 64.890625 
Q 37.9375 66.21875 33.296875 66.21875 
Q 25.25 66.21875 20.875 63.09375 
Q 16.5 59.96875 16.5 54.203125 
Q 16.5 49.359375 19.40625 46.890625 
Q 22.3125 44.4375 30.421875 42.921875 
L 36.375 41.703125 
Q 47.40625 39.59375 52.65625 34.296875 
Q 57.90625 29 57.90625 20.125 
Q 57.90625 9.515625 50.796875 4.046875 
Q 43.703125 -1.421875 29.984375 -1.421875 
Q 24.8125 -1.421875 18.96875 -0.25 
Q 13.140625 0.921875 6.890625 3.21875 
L 6.890625 13.375 
Q 12.890625 10.015625 18.65625 8.296875 
Q 24.421875 6.59375 29.984375 6.59375 
Q 38.421875 6.59375 43.015625 9.90625 
Q 47.609375 13.234375 47.609375 19.390625 
Q 47.609375 24.75 44.3125 27.78125 
Q 41.015625 30.8125 33.5 32.328125 
L 27.484375 33.5 
Q 16.453125 35.6875 11.515625 40.375 
Q 6.59375 45.0625 6.59375 53.421875 
Q 6.59375 63.09375 13.40625 68.65625 
Q 20.21875 74.21875 32.171875 74.21875 
Q 37.3125 74.21875 42.625 73.28125 
Q 47.953125 72.359375 53.515625 70.515625 
z
" id="DejaVuSans-83"/>
      <path d="M 44.390625 34.1875 
Q 47.5625 33.109375 50.5625 29.59375 
Q 53.5625 26.078125 56.59375 19.921875 
L 66.609375 0 
L 56 0 
L 46.6875 18.703125 
Q 43.0625 26.03125 39.671875 28.421875 
Q 36.28125 30.8125 30.421875 30.8125 
L 19.671875 30.8125 
L 19.671875 0 
L 9.8125 0 
L 9.8125 72.90625 
L 32.078125 72.90625 
Q 44.578125 72.90625 50.734375 67.671875 
Q 56.890625 62.453125 56.890625 51.90625 
Q 56.890625 45.015625 53.6875 40.46875 
Q 50.484375 35.9375 44.390625 34.1875 
z
M 19.671875 64.796875 
L 19.671875 38.921875 
L 32.078125 38.921875 
Q 39.203125 38.921875 42.84375 42.21875 
Q 46.484375 45.515625 46.484375 51.90625 
Q 46.484375 58.296875 42.84375 61.546875 
Q 39.203125 64.796875 32.078125 64.796875 
z
" id="DejaVuSans-82"/>
      <path d="M 8.015625 75.875 
L 15.828125 75.875 
Q 23.140625 64.359375 26.78125 53.3125 
Q 30.421875 42.28125 30.421875 31.390625 
Q 30.421875 20.453125 26.78125 9.375 
Q 23.140625 -1.703125 15.828125 -13.1875 
L 8.015625 -13.1875 
Q 14.5 -2 17.703125 9.0625 
Q 20.90625 20.125 20.90625 31.390625 
Q 20.90625 42.671875 17.703125 53.65625 
Q 14.5 64.65625 8.015625 75.875 
z
" id="DejaVuSans-41"/>
     </defs>
     <g transform="translate(21.020312 202.224094)rotate(-90)scale(0.1 -0.1)">
      <use xlink:href="#DejaVuSans-69"/>
      <use x="63.183594" xlink:href="#DejaVuSans-114"/>
      <use x="104.28125" xlink:href="#DejaVuSans-114"/>
      <use x="145.363281" xlink:href="#DejaVuSans-111"/>
      <use x="206.544922" xlink:href="#DejaVuSans-114"/>
      <use x="247.658203" xlink:href="#DejaVuSans-32"/>
      <use x="279.445312" xlink:href="#DejaVuSans-40"/>
      <use x="318.458984" xlink:href="#DejaVuSans-83"/>
      <use x="381.935547" xlink:href="#DejaVuSans-83"/>
      <use x="445.412109" xlink:href="#DejaVuSans-82"/>
      <use x="514.894531" xlink:href="#DejaVuSans-41"/>
     </g>
    </g>
   </g>
   <g id="line2d_43">
    <path clip-path="url(#p16fb3a9a9f)" d="M 73.832727 53.568 
L 74.157707 59.033377 
L 76.432563 78.986075 
L 77.082523 87.340898 
L 78.057461 99.038452 
L 80.332318 114.723154 
L 81.307256 119.435217 
L 81.632236 120.291833 
L 81.957215 121.608953 
L 82.282195 122.171609 
L 82.932154 124.453599 
L 83.582113 124.832433 
L 83.907093 128.58137 
L 84.232072 129.418145 
L 84.882031 136.343964 
L 85.207011 135.814283 
L 85.53199 136.336111 
L 86.181949 135.354014 
L 86.831908 141.755982 
L 87.156888 141.130975 
L 87.481867 141.979875 
L 87.806847 144.808151 
L 88.456806 143.551112 
L 88.781785 146.438991 
L 89.431744 146.830251 
L 89.756724 146.211814 
L 90.081704 148.901891 
L 90.731663 147.682508 
L 91.056642 148.433725 
L 91.381622 148.653119 
L 91.706601 149.289293 
L 92.031581 151.754154 
L 92.35656 151.233047 
L 92.68154 151.754207 
L 93.006519 151.186169 
L 93.331499 151.757957 
L 93.656478 151.161612 
L 93.981458 151.379405 
L 94.306437 150.761042 
L 94.631417 151.45925 
L 94.956396 151.685867 
L 95.281376 151.06706 
L 95.931335 156.274837 
L 96.256314 155.770939 
L 96.906274 160.140513 
L 97.231253 159.880205 
L 97.556233 159.425297 
L 97.881212 159.884666 
L 98.206192 162.03213 
L 98.531171 161.683304 
L 99.18113 162.384333 
L 99.50611 162.419996 
L 99.831089 162.032604 
L 100.156069 164.197782 
L 100.806028 163.339694 
L 101.131007 162.765529 
L 101.780966 163.116045 
L 102.430925 164.178121 
L 102.755905 164.28152 
L 103.080885 164.696472 
L 103.405864 164.196035 
L 103.730844 164.670733 
L 104.380803 164.882801 
L 104.705782 164.357402 
L 105.355741 165.29388 
L 106.0057 165.496003 
L 106.33068 165.848019 
L 106.655659 165.383865 
L 106.980639 167.700801 
L 107.305618 167.753139 
L 107.630598 169.674974 
L 107.955577 169.490454 
L 108.280557 169.089233 
L 108.930516 169.79065 
L 109.255495 169.850169 
L 109.905455 173.380406 
L 110.230434 174.56522 
L 110.555414 174.582248 
L 110.880393 175.042956 
L 112.180311 175.371185 
L 112.83027 178.016909 
L 113.480229 177.99608 
L 113.805209 178.666479 
L 114.130188 179.784567 
L 114.455168 180.358671 
L 115.105127 180.438253 
L 115.430106 182.042495 
L 115.755086 182.123116 
L 116.080066 181.902687 
L 116.405045 181.500208 
L 116.730025 181.572183 
L 117.055004 183.78602 
L 117.379984 183.441329 
L 117.704963 183.48731 
L 118.354922 187.338511 
L 118.679902 187.429955 
L 119.004881 188.693052 
L 119.65484 188.703775 
L 119.97982 189.486048 
L 120.304799 189.460862 
L 120.629779 189.865401 
L 120.954758 191.382845 
L 121.279738 191.361737 
L 121.604717 191.868028 
L 122.254676 192.3478 
L 122.579656 192.607995 
L 122.904636 194.193616 
L 123.554595 194.153325 
L 123.879574 195.089782 
L 124.204554 195.105794 
L 124.529533 196.04271 
L 125.504472 196.219788 
L 125.829451 196.966319 
L 126.154431 197.356919 
L 126.47941 198.870809 
L 126.80439 198.957621 
L 127.779328 201.342896 
L 128.104308 202.482517 
L 128.429287 203.205581 
L 128.754267 204.215451 
L 129.079247 204.215853 
L 129.404226 204.715425 
L 130.054185 204.935901 
L 130.379165 204.899977 
L 130.704144 205.005619 
L 131.029124 204.971923 
L 131.354103 205.067925 
L 132.004062 204.959995 
L 132.329042 205.121796 
L 132.654021 205.090055 
L 132.979001 205.234387 
L 133.30398 205.019258 
L 133.62896 206.982654 
L 133.953939 206.82524 
L 134.278919 206.796208 
L 134.603898 206.977287 
L 135.253857 206.311382 
L 135.578837 208.634852 
L 135.903817 208.822458 
L 136.878755 208.729244 
L 137.203735 208.904117 
L 137.853694 212.167287 
L 138.178673 212.165158 
L 138.828632 212.418224 
L 139.478591 214.809057 
L 139.803571 215.461945 
L 140.12855 215.702537 
L 140.778509 215.591376 
L 141.428468 215.031813 
L 141.753448 217.268181 
L 142.078428 217.405857 
L 142.403407 217.16329 
L 142.728387 217.347523 
L 143.053366 217.040754 
L 143.378346 219.236285 
L 143.703325 218.992933 
L 144.353284 219.332611 
L 144.678264 221.249214 
L 145.003243 221.308865 
L 145.328223 222.770284 
L 145.978182 222.773559 
L 146.303161 223.877649 
L 146.628141 224.578539 
L 146.95312 224.752616 
L 147.603079 226.365103 
L 147.928059 226.799383 
L 149.227977 227.03792 
L 149.552957 227.609053 
L 149.877936 227.783107 
L 150.202916 229.53847 
L 150.852875 230.061398 
L 151.177854 229.990903 
L 151.827813 230.381887 
L 152.152793 232.11521 
L 152.477772 232.231337 
L 152.802752 232.693782 
L 153.127731 232.626345 
L 153.452711 233.188663 
L 153.77769 232.961846 
L 154.10267 233.619658 
L 154.427649 233.25517 
L 155.077609 234.644017 
L 155.402588 234.909076 
L 156.052547 235.840814 
L 156.377527 235.999363 
L 157.027486 236.580565 
L 157.352465 236.785349 
L 157.677445 237.128041 
L 158.002424 237.279738 
L 158.327404 237.556605 
L 158.977363 237.741672 
L 159.627322 238.206997 
L 160.60226 238.617086 
L 160.92724 238.455071 
L 161.252219 239.054796 
L 161.577199 238.74216 
L 161.902179 239.14705 
L 162.227158 241.160998 
L 162.552138 240.997983 
L 162.877117 242.862713 
L 163.202097 243.269926 
L 163.527076 243.4202 
L 163.852056 244.40936 
L 164.502015 245.143236 
L 164.826994 245.343511 
L 165.151974 246.59336 
L 165.476953 246.698211 
L 165.801933 247.427959 
L 166.451892 247.52533 
L 166.776871 247.518144 
L 167.101851 247.755929 
L 167.75181 247.686108 
L 168.07679 248.844968 
L 168.401769 249.582215 
L 168.726749 249.927266 
L 169.051728 250.898795 
L 169.376708 251.187776 
L 169.701687 252.188631 
L 170.351646 252.607662 
L 171.001605 252.639184 
L 171.326585 253.332073 
L 171.651564 253.407788 
L 172.301523 254.156091 
L 173.276462 254.531409 
L 173.601441 254.895086 
L 173.926421 255.65883 
L 174.2514 256.127216 
L 175.551319 256.351963 
L 177.176216 255.58635 
L 177.501196 255.379868 
L 178.151155 258.711756 
L 179.451073 258.493317 
L 179.776052 259.964735 
L 180.750991 259.625584 
L 181.40095 261.988977 
L 181.72593 262.220383 
L 183.675807 262.126177 
L 184.325766 261.82784 
L 184.650745 263.404142 
L 184.975725 263.285324 
L 185.300704 264.527766 
L 185.950663 264.378763 
L 186.275643 265.414822 
L 186.925602 265.373166 
L 187.250581 266.288439 
L 187.900541 266.345734 
L 188.5505 266.277563 
L 188.875479 266.275169 
L 189.200459 266.129678 
L 189.850418 268.252041 
L 190.500377 268.981181 
L 190.825356 269.268192 
L 191.150336 269.729453 
L 192.450254 270.755744 
L 192.775233 270.576519 
L 193.425192 271.672186 
L 194.400131 272.501398 
L 195.05009 272.664689 
L 195.37507 272.627243 
L 195.700049 273.368777 
L 196.674988 273.524583 
L 196.999967 274.160329 
L 197.649926 274.281263 
L 198.299885 274.229208 
L 198.624865 274.086696 
L 198.949844 274.089313 
L 199.924783 273.405767 
L 200.249762 273.121133 
L 200.574742 273.246232 
L 201.224701 275.720524 
L 201.549681 276.374021 
L 202.19964 276.444989 
L 202.524619 277.122258 
L 202.849599 277.445656 
L 203.174578 277.453342 
L 203.499558 277.731178 
L 203.824537 277.535392 
L 204.149517 277.102882 
L 204.799476 278.182982 
L 205.124455 278.568343 
L 205.774414 279.58131 
L 206.424373 279.98304 
L 206.749353 279.951902 
L 207.399312 280.467994 
L 207.724292 280.571134 
L 208.049271 280.963728 
L 208.374251 281.050729 
L 208.69923 281.427262 
L 209.02421 281.40848 
L 209.674169 281.698048 
L 209.999148 281.647914 
L 210.324128 282.224296 
L 210.649107 282.250602 
L 211.299066 281.956215 
L 211.624046 281.676709 
L 211.949025 282.682249 
L 212.274005 282.679852 
L 212.598984 282.522932 
L 212.923964 282.546079 
L 213.248943 282.356323 
L 213.573923 282.401682 
L 213.898903 283.071354 
L 214.223882 283.01602 
L 214.548862 283.556781 
L 214.873841 283.462096 
L 215.198821 283.511991 
L 215.5238 283.86917 
L 216.173759 283.662723 
L 216.823718 283.920131 
L 217.148698 283.839562 
L 217.473677 284.114864 
L 217.798657 284.120527 
L 218.123636 284.47144 
L 218.448616 284.65227 
L 218.773595 284.689503 
L 219.098575 284.996535 
L 219.423554 284.856343 
L 220.073514 285.272586 
L 220.398493 285.209764 
L 220.723473 284.936145 
L 221.373432 285.868622 
L 221.698411 285.692414 
L 222.023391 286.086995 
L 222.34837 286.103547 
L 222.67335 286.490654 
L 222.998329 286.492079 
L 223.323309 286.870413 
L 223.648288 286.85808 
L 224.623227 286.190821 
L 225.273186 285.135712 
L 225.923145 286.886036 
L 226.248124 286.668054 
L 226.573104 287.240117 
L 227.223063 286.462657 
L 227.548043 287.442257 
L 227.873022 287.02244 
L 228.198002 286.802119 
L 228.847961 285.585659 
L 229.49792 284.108991 
L 229.822899 285.809777 
L 230.147879 285.091066 
L 230.797838 287.723704 
L 231.122817 287.153376 
L 231.447797 286.916383 
L 232.097756 288.908384 
L 232.747715 289.857244 
L 233.072695 289.76179 
L 233.397674 290.037102 
L 234.047633 289.373869 
L 234.372613 289.855998 
L 235.347551 288.885774 
L 235.99751 290.086025 
L 236.32249 290.285639 
L 236.647469 290.259769 
L 236.972449 290.084467 
L 237.622408 289.223959 
L 237.947387 289.97719 
L 238.922326 288.665172 
L 239.572285 287.737923 
L 240.222244 289.881315 
L 240.872203 290.851334 
L 241.197183 290.513021 
L 241.522162 290.823802 
L 241.847142 290.506333 
L 242.172121 290.803824 
L 242.497101 290.865814 
L 242.82208 290.747999 
L 243.14706 291.02572 
L 243.472039 290.890385 
L 243.797019 290.593859 
L 244.446978 291.089065 
L 244.771957 291.126703 
L 245.096937 291.021017 
L 245.421916 291.305331 
L 245.746896 291.236026 
L 246.071876 291.044126 
L 246.396855 291.424919 
L 246.721835 291.557023 
L 247.046814 291.347273 
L 247.371794 291.490197 
L 248.021753 291.442596 
L 248.996691 290.514861 
L 249.321671 291.052889 
L 249.64665 291.338576 
L 250.621589 291.556093 
L 250.946568 291.420522 
L 251.271548 291.540867 
L 251.596527 291.387698 
L 251.921507 291.466325 
L 252.571466 291.153536 
L 253.221425 291.531382 
L 253.546405 291.390623 
L 253.871384 291.10443 
L 254.196364 291.479011 
L 254.521343 291.194562 
L 254.846323 291.463413 
L 255.171302 291.260137 
L 255.496282 291.380814 
L 256.47122 290.863616 
L 256.7962 291.214482 
L 257.121179 291.363951 
L 257.446159 291.288109 
L 257.771138 290.879959 
L 258.096118 291.420866 
L 258.746077 290.768883 
L 259.071057 291.175575 
L 259.396036 290.925072 
L 259.721016 291.268877 
L 260.045995 291.419198 
L 260.370975 291.319467 
L 261.020934 290.56867 
L 261.345913 291.35001 
L 261.670893 291.546934 
L 261.995872 291.412723 
L 262.645831 291.74477 
L 262.970811 291.553494 
L 263.29579 291.644792 
L 263.945749 291.381891 
L 264.595708 290.57285 
L 264.920688 290.083394 
L 265.570647 291.352473 
L 265.895627 291.485241 
L 266.220606 291.300663 
L 267.195545 290.122154 
L 267.520524 291.056767 
L 267.845504 290.755578 
L 268.170483 291.498747 
L 268.820442 290.949721 
L 269.145422 291.701703 
L 269.470401 291.452812 
L 269.795381 290.906322 
L 270.12036 291.416731 
L 270.44534 291.102957 
L 270.770319 290.522095 
L 271.095299 291.476451 
L 271.745258 290.347269 
L 272.070238 291.028189 
L 272.395217 290.635986 
L 273.045176 289.543335 
L 273.695135 291.411594 
L 274.020115 291.77301 
L 274.670074 292.121106 
L 275.320033 291.634641 
L 275.645012 291.224839 
L 275.969992 291.878541 
L 276.294971 292.096529 
L 276.94493 291.564214 
L 277.26991 291.114174 
L 277.919869 291.977527 
L 278.244848 291.62902 
L 278.569828 291.088369 
L 278.894808 291.649798 
L 279.544767 290.471343 
L 280.194726 288.993272 
L 280.519705 289.932432 
L 280.844685 291.516765 
L 281.494644 292.317962 
L 282.144603 291.435169 
L 282.794562 290.254309 
L 283.119541 291.703509 
L 283.444521 292.371586 
L 283.7695 292.526125 
L 284.09448 292.453686 
L 284.419459 292.627817 
L 285.069419 292.355529 
L 285.394398 291.867644 
L 285.719378 292.495939 
L 286.694316 291.050661 
L 287.344275 292.440959 
L 287.669255 292.196549 
L 287.994234 292.719535 
L 288.319214 292.826953 
L 288.969173 292.563923 
L 289.619132 291.655526 
L 289.944111 290.999511 
L 290.269091 291.682913 
L 290.59407 291.018226 
L 290.91905 292.313154 
L 291.244029 291.809423 
L 291.893989 292.899414 
L 292.218968 292.640802 
L 292.543948 292.999475 
L 292.868927 292.836125 
L 293.518886 291.988516 
L 293.843866 292.782595 
L 294.168845 292.410597 
L 294.818804 293.046335 
L 295.468763 292.748892 
L 295.793743 293.067202 
L 296.118722 293.120308 
L 296.443702 293.026686 
L 296.768681 293.121225 
L 297.093661 292.997269 
L 297.41864 293.169606 
L 297.74362 293.001081 
L 298.0686 292.672861 
L 298.718559 293.222608 
L 299.368518 292.868446 
L 299.693497 293.184733 
L 300.668436 293.288777 
L 301.318395 293.097088 
L 301.643374 292.882821 
L 301.968354 293.245007 
L 302.293333 293.356823 
L 302.618313 293.156712 
L 303.268272 292.16108 
L 303.918231 290.944437 
L 304.24321 291.886734 
L 304.56819 291.449379 
L 304.89317 292.392947 
L 305.218149 292.924656 
L 305.868108 291.837327 
L 306.193088 292.514092 
L 306.518067 291.956312 
L 306.843047 292.726104 
L 307.817985 291.058019 
L 308.142965 292.07568 
L 308.467944 292.68752 
L 308.792924 292.382984 
L 309.117903 292.990546 
L 309.442883 292.742527 
L 310.092842 291.780132 
L 310.417821 292.62426 
L 310.742801 292.055111 
L 311.067781 292.756882 
L 311.71774 292.030468 
L 312.042719 292.750014 
L 313.342637 290.441069 
L 313.667617 291.689662 
L 314.642555 290.054203 
L 314.967535 289.485199 
L 315.292514 290.841882 
L 315.617494 290.310961 
L 316.267453 292.517797 
L 316.592432 291.887274 
L 316.917412 292.670183 
L 317.567371 291.873368 
L 318.21733 293.328475 
L 318.54231 293.583994 
L 319.517248 293.687712 
L 319.842228 293.518147 
L 320.167207 293.148883 
L 320.817166 293.712116 
L 321.467125 293.826374 
L 322.117084 293.770923 
L 322.442064 293.861412 
L 322.767043 293.710718 
L 323.092023 293.363896 
L 323.417002 293.636976 
L 323.741982 293.258277 
L 324.391941 293.75239 
L 324.716921 293.846055 
L 325.0419 293.634996 
L 325.36688 293.906228 
L 325.691859 293.817235 
L 326.016839 293.57209 
L 326.666798 293.931903 
L 326.991777 293.929301 
L 327.316757 293.70627 
L 327.641736 293.309022 
L 327.966716 293.60159 
L 328.616675 292.60023 
L 329.266634 291.229188 
L 329.591613 293.01108 
L 329.916593 293.870695 
L 330.241572 293.527177 
L 330.566552 294.023904 
L 330.891532 293.836972 
L 331.216511 294.107424 
L 331.541491 293.928852 
L 331.86647 294.078652 
L 332.19145 294.019819 
L 332.516429 293.824397 
L 332.841409 294.028347 
L 333.166388 294.099825 
L 333.491368 293.802568 
L 333.816347 294.035415 
L 334.141327 294.054023 
L 334.466306 293.954036 
L 334.791286 294.106193 
L 335.116265 294.084161 
L 335.441245 294.183004 
L 335.766224 294.076116 
L 336.091204 294.208444 
L 336.416183 294.149265 
L 336.741163 293.914363 
L 337.066143 293.540638 
L 337.391122 293.881934 
L 337.716102 293.496315 
L 338.041081 294.049238 
L 338.69104 294.139621 
L 339.665979 294.039073 
L 339.990958 293.861054 
L 340.640917 292.990001 
L 340.965897 292.347926 
L 341.290876 292.939496 
L 341.615856 293.886813 
L 341.940835 294.168771 
L 342.265815 294.148968 
L 342.590794 293.840922 
L 342.915774 294.045346 
L 343.240753 293.902996 
L 343.565733 294.222929 
L 344.215692 293.745552 
L 344.540672 294.227989 
L 344.865651 294.068811 
L 345.190631 294.24626 
L 345.51561 293.921229 
L 345.84059 294.324015 
L 347.140508 294.361691 
L 347.465487 294.230673 
L 347.790467 294.36542 
L 348.115446 294.273674 
L 348.440426 294.457026 
L 348.765405 294.304821 
L 349.090385 294.530624 
L 349.415364 294.434218 
L 351.040262 294.614193 
L 351.690221 294.321478 
L 352.34018 293.788768 
L 352.66516 293.455054 
L 353.315119 291.997977 
L 353.640098 293.162454 
L 354.290057 294.460529 
L 354.615037 294.67488 
L 355.914955 294.636249 
L 356.239934 294.772554 
L 356.564914 294.50438 
L 356.889894 294.77785 
L 357.214873 294.466183 
L 357.539853 294.762883 
L 357.864832 294.811768 
L 358.189812 294.655821 
L 358.514791 294.795735 
L 358.839771 294.771378 
L 359.16475 294.535333 
L 359.814709 294.877739 
L 360.139689 294.718918 
L 360.464668 294.899002 
L 360.789648 294.842737 
L 361.114627 294.919524 
L 361.439607 294.780032 
L 361.764586 294.912078 
L 362.089566 294.891236 
L 362.414545 294.658266 
L 362.739525 294.935238 
L 363.064505 294.780603 
L 363.389484 294.912449 
L 363.714464 294.868625 
L 364.039443 294.971278 
L 364.364423 294.822826 
L 364.689402 294.983574 
L 365.664341 294.875867 
L 365.98932 294.709858 
L 366.3143 295.001382 
L 366.639279 295.040406 
L 366.964259 294.946308 
L 367.289238 295.054948 
L 367.614218 294.885333 
L 368.264177 293.913957 
L 368.589156 293.307676 
L 369.239115 294.684262 
L 369.564095 294.439413 
L 369.889075 294.877376 
L 370.214054 295.053683 
L 370.539034 295.032288 
L 370.864013 294.807656 
L 371.188993 294.422222 
L 371.838952 295.113881 
L 372.163931 294.967063 
L 372.488911 295.102647 
L 372.81389 294.885206 
L 373.13887 295.066471 
L 373.788829 294.861146 
L 374.113808 295.146025 
L 374.438788 295.18283 
L 374.763767 295.014466 
L 375.088747 295.168754 
L 375.413726 295.144497 
L 375.738706 294.796916 
L 376.063686 295.137126 
L 376.388665 295.220778 
L 376.713645 295.091319 
L 377.038624 295.186916 
L 377.363604 295.132884 
L 377.688583 294.900804 
L 378.013563 294.528248 
L 378.338542 294.916483 
L 378.988501 294.004652 
L 379.96344 291.946838 
L 380.288419 293.756046 
L 380.613399 294.733059 
L 381.263358 293.761574 
L 381.913317 292.425617 
L 382.238296 293.945953 
L 382.563276 294.725701 
L 382.888256 294.975785 
L 383.213235 294.832734 
L 383.538215 294.500825 
L 383.863194 294.917411 
L 384.188174 294.933243 
L 384.513153 294.695627 
L 385.163112 293.856379 
L 385.488092 294.447566 
L 385.813071 294.201519 
L 386.138051 294.69148 
L 386.46303 294.921268 
L 387.112989 294.830843 
L 387.437969 294.759917 
L 387.762948 294.954806 
L 388.087928 294.908768 
L 388.412907 294.522352 
L 388.737887 294.939715 
L 389.387846 295.067831 
L 389.712826 295.141239 
L 390.037805 295.030221 
L 391.337723 295.047987 
L 391.987682 294.925145 
L 392.312662 295.089217 
L 392.962621 294.441848 
L 393.2876 294.137612 
L 393.61258 294.764934 
L 393.937559 295.101424 
L 394.262539 295.004701 
L 394.587518 295.260121 
L 395.562457 294.459676 
L 395.887437 293.929096 
L 396.212416 294.672115 
L 396.537396 295.13018 
L 396.862375 295.386825 
L 397.837314 295.45039 
L 398.162293 295.259966 
L 398.487273 295.45598 
L 398.487273 295.45598 
" style="fill:none;stroke:#1f77b4;stroke-linecap:square;stroke-width:1.5;"/>
   </g>
   <g id="patch_3">
    <path d="M 57.6 307.584 
L 57.6 41.472 
" style="fill:none;stroke:#000000;stroke-linecap:square;stroke-linejoin:miter;stroke-width:0.8;"/>
   </g>
   <g id="patch_4">
    <path d="M 414.72 307.584 
L 414.72 41.472 
" style="fill:none;stroke:#000000;stroke-linecap:square;stroke-linejoin:miter;stroke-width:0.8;"/>
   </g>
   <g id="patch_5">
    <path d="M 57.6 307.584 
L 414.72 307.584 
" style="fill:none;stroke:#000000;stroke-linecap:square;stroke-linejoin:miter;stroke-width:0.8;"/>
   </g>
   <g id="patch_6">
    <path d="M 57.6 41.472 
L 414.72 41.472 
" style="fill:none;stroke:#000000;stroke-linecap:square;stroke-linejoin:miter;stroke-width:0.8;"/>
   </g>
   <g id="text_13">
    <!-- Convergence -->
    <defs>
     <path d="M 64.40625 67.28125 
L 64.40625 56.890625 
Q 59.421875 61.53125 53.78125 63.8125 
Q 48.140625 66.109375 41.796875 66.109375 
Q 29.296875 66.109375 22.65625 58.46875 
Q 16.015625 50.828125 16.015625 36.375 
Q 16.015625 21.96875 22.65625 14.328125 
Q 29.296875 6.6875 41.796875 6.6875 
Q 48.140625 6.6875 53.78125 8.984375 
Q 59.421875 11.28125 64.40625 15.921875 
L 64.40625 5.609375 
Q 59.234375 2.09375 53.4375 0.328125 
Q 47.65625 -1.421875 41.21875 -1.421875 
Q 24.65625 -1.421875 15.125 8.703125 
Q 5.609375 18.84375 5.609375 36.375 
Q 5.609375 53.953125 15.125 64.078125 
Q 24.65625 74.21875 41.21875 74.21875 
Q 47.75 74.21875 53.53125 72.484375 
Q 59.328125 70.75 64.40625 67.28125 
z
" id="DejaVuSans-67"/>
     <path d="M 2.984375 54.6875 
L 12.5 54.6875 
L 29.59375 8.796875 
L 46.6875 54.6875 
L 56.203125 54.6875 
L 35.6875 0 
L 23.484375 0 
z
" id="DejaVuSans-118"/>
     <path d="M 45.40625 27.984375 
Q 45.40625 37.75 41.375 43.109375 
Q 37.359375 48.484375 30.078125 48.484375 
Q 22.859375 48.484375 18.828125 43.109375 
Q 14.796875 37.75 14.796875 27.984375 
Q 14.796875 18.265625 18.828125 12.890625 
Q 22.859375 7.515625 30.078125 7.515625 
Q 37.359375 7.515625 41.375 12.890625 
Q 45.40625 18.265625 45.40625 27.984375 
z
M 54.390625 6.78125 
Q 54.390625 -7.171875 48.1875 -13.984375 
Q 42 -20.796875 29.203125 -20.796875 
Q 24.46875 -20.796875 20.265625 -20.09375 
Q 16.0625 -19.390625 12.109375 -17.921875 
L 12.109375 -9.1875 
Q 16.0625 -11.328125 19.921875 -12.34375 
Q 23.78125 -13.375 27.78125 -13.375 
Q 36.625 -13.375 41.015625 -8.765625 
Q 45.40625 -4.15625 45.40625 5.171875 
L 45.40625 9.625 
Q 42.625 4.78125 38.28125 2.390625 
Q 33.9375 0 27.875 0 
Q 17.828125 0 11.671875 7.65625 
Q 5.515625 15.328125 5.515625 27.984375 
Q 5.515625 40.671875 11.671875 48.328125 
Q 17.828125 56 27.875 56 
Q 33.9375 56 38.28125 53.609375 
Q 42.625 51.21875 45.40625 46.390625 
L 45.40625 54.6875 
L 54.390625 54.6875 
z
" id="DejaVuSans-103"/>
     <path d="M 48.78125 52.59375 
L 48.78125 44.1875 
Q 44.96875 46.296875 41.140625 47.34375 
Q 37.3125 48.390625 33.40625 48.390625 
Q 24.65625 48.390625 19.8125 42.84375 
Q 14.984375 37.3125 14.984375 27.296875 
Q 14.984375 17.28125 19.8125 11.734375 
Q 24.65625 6.203125 33.40625 6.203125 
Q 37.3125 6.203125 41.140625 7.25 
Q 44.96875 8.296875 48.78125 10.40625 
L 48.78125 2.09375 
Q 45.015625 0.34375 40.984375 -0.53125 
Q 36.96875 -1.421875 32.421875 -1.421875 
Q 20.0625 -1.421875 12.78125 6.34375 
Q 5.515625 14.109375 5.515625 27.296875 
Q 5.515625 40.671875 12.859375 48.328125 
Q 20.21875 56 33.015625 56 
Q 37.15625 56 41.109375 55.140625 
Q 45.0625 54.296875 48.78125 52.59375 
z
" id="DejaVuSans-99"/>
    </defs>
    <g transform="translate(196.493437 35.472)scale(0.12 -0.12)">
     <use xlink:href="#DejaVuSans-67"/>
     <use x="69.824219" xlink:href="#DejaVuSans-111"/>
     <use x="131.005859" xlink:href="#DejaVuSans-110"/>
     <use x="194.384766" xlink:href="#DejaVuSans-118"/>
     <use x="253.564453" xlink:href="#DejaVuSans-101"/>
     <use x="315.087891" xlink:href="#DejaVuSans-114"/>
     <use x="356.185547" xlink:href="#DejaVuSans-103"/>
     <use x="419.662109" xlink:href="#DejaVuSans-101"/>
     <use x="481.185547" xlink:href="#DejaVuSans-110"/>
     <use x="544.564453" xlink:href="#DejaVuSans-99"/>
     <use x="599.544922" xlink:href="#DejaVuSans-101"/>
    </g>
   </g>
  </g>
 </g>
 <defs>
  <clipPath id="p16fb3a9a9f">
   <rect height="266.112" width="357.12" x="57.6" y="41.472"/>
  </clipPath>
 </defs>
</svg>
